<?xml version="1.0" encoding="UTF-8" standalone="no"?>
<!-- Created with Inkscape (http://www.inkscape.org/) -->

<svg
   xmlns:dc="http://purl.org/dc/elements/1.1/"
   xmlns:cc="http://creativecommons.org/ns#"
   xmlns:rdf="http://www.w3.org/1999/02/22-rdf-syntax-ns#"
   xmlns:svg="http://www.w3.org/2000/svg"
   xmlns="http://www.w3.org/2000/svg"
   xmlns:sodipodi="http://sodipodi.sourceforge.net/DTD/sodipodi-0.dtd"
   xmlns:inkscape="http://www.inkscape.org/namespaces/inkscape"
   width="744.09448819"
   height="1052.3622047"
   id="svg2"
   version="1.1"
   inkscape:version="0.47 r22583"
   sodipodi:docname="step2 more items.svg">
  <defs
     id="defs4">
    <inkscape:perspective
       sodipodi:type="inkscape:persp3d"
       inkscape:vp_x="0 : 526.18109 : 1"
       inkscape:vp_y="0 : 1000 : 0"
       inkscape:vp_z="744.09448 : 526.18109 : 1"
       inkscape:persp3d-origin="372.04724 : 350.78739 : 1"
       id="perspective10" />
    <inkscape:perspective
       id="perspective4034"
       inkscape:persp3d-origin="0.5 : 0.33333333 : 1"
       inkscape:vp_z="1 : 0.5 : 1"
       inkscape:vp_y="0 : 1000 : 0"
       inkscape:vp_x="0 : 0.5 : 1"
       sodipodi:type="inkscape:persp3d" />
    <inkscape:perspective
       id="perspective3647"
       inkscape:persp3d-origin="0.5 : 0.33333333 : 1"
       inkscape:vp_z="1 : 0.5 : 1"
       inkscape:vp_y="0 : 1000 : 0"
       inkscape:vp_x="0 : 0.5 : 1"
       sodipodi:type="inkscape:persp3d" />
    <inkscape:perspective
       id="perspective3647-4"
       inkscape:persp3d-origin="0.5 : 0.33333333 : 1"
       inkscape:vp_z="1 : 0.5 : 1"
       inkscape:vp_y="0 : 1000 : 0"
       inkscape:vp_x="0 : 0.5 : 1"
       sodipodi:type="inkscape:persp3d" />
    <inkscape:perspective
       id="perspective3678"
       inkscape:persp3d-origin="0.5 : 0.33333333 : 1"
       inkscape:vp_z="1 : 0.5 : 1"
       inkscape:vp_y="0 : 1000 : 0"
       inkscape:vp_x="0 : 0.5 : 1"
       sodipodi:type="inkscape:persp3d" />
    <inkscape:perspective
       id="perspective3678-1"
       inkscape:persp3d-origin="0.5 : 0.33333333 : 1"
       inkscape:vp_z="1 : 0.5 : 1"
       inkscape:vp_y="0 : 1000 : 0"
       inkscape:vp_x="0 : 0.5 : 1"
       sodipodi:type="inkscape:persp3d" />
    <inkscape:perspective
       id="perspective3678-13"
       inkscape:persp3d-origin="0.5 : 0.33333333 : 1"
       inkscape:vp_z="1 : 0.5 : 1"
       inkscape:vp_y="0 : 1000 : 0"
       inkscape:vp_x="0 : 0.5 : 1"
       sodipodi:type="inkscape:persp3d" />
    <inkscape:perspective
       id="perspective3718"
       inkscape:persp3d-origin="0.5 : 0.33333333 : 1"
       inkscape:vp_z="1 : 0.5 : 1"
       inkscape:vp_y="0 : 1000 : 0"
       inkscape:vp_x="0 : 0.5 : 1"
       sodipodi:type="inkscape:persp3d" />
    <inkscape:perspective
       id="perspective3740"
       inkscape:persp3d-origin="0.5 : 0.33333333 : 1"
       inkscape:vp_z="1 : 0.5 : 1"
       inkscape:vp_y="0 : 1000 : 0"
       inkscape:vp_x="0 : 0.5 : 1"
       sodipodi:type="inkscape:persp3d" />
    <inkscape:perspective
       id="perspective3740-3"
       inkscape:persp3d-origin="0.5 : 0.33333333 : 1"
       inkscape:vp_z="1 : 0.5 : 1"
       inkscape:vp_y="0 : 1000 : 0"
       inkscape:vp_x="0 : 0.5 : 1"
       sodipodi:type="inkscape:persp3d" />
    <inkscape:perspective
       id="perspective3740-6"
       inkscape:persp3d-origin="0.5 : 0.33333333 : 1"
       inkscape:vp_z="1 : 0.5 : 1"
       inkscape:vp_y="0 : 1000 : 0"
       inkscape:vp_x="0 : 0.5 : 1"
       sodipodi:type="inkscape:persp3d" />
    <inkscape:perspective
       id="perspective3780"
       inkscape:persp3d-origin="0.5 : 0.33333333 : 1"
       inkscape:vp_z="1 : 0.5 : 1"
       inkscape:vp_y="0 : 1000 : 0"
       inkscape:vp_x="0 : 0.5 : 1"
       sodipodi:type="inkscape:persp3d" />
    <inkscape:perspective
       id="perspective3780-5"
       inkscape:persp3d-origin="0.5 : 0.33333333 : 1"
       inkscape:vp_z="1 : 0.5 : 1"
       inkscape:vp_y="0 : 1000 : 0"
       inkscape:vp_x="0 : 0.5 : 1"
       sodipodi:type="inkscape:persp3d" />
    <inkscape:perspective
       id="perspective3841"
       inkscape:persp3d-origin="0.5 : 0.33333333 : 1"
       inkscape:vp_z="1 : 0.5 : 1"
       inkscape:vp_y="0 : 1000 : 0"
       inkscape:vp_x="0 : 0.5 : 1"
       sodipodi:type="inkscape:persp3d" />
    <inkscape:perspective
       id="perspective3881"
       inkscape:persp3d-origin="0.5 : 0.33333333 : 1"
       inkscape:vp_z="1 : 0.5 : 1"
       inkscape:vp_y="0 : 1000 : 0"
       inkscape:vp_x="0 : 0.5 : 1"
       sodipodi:type="inkscape:persp3d" />
    <inkscape:perspective
       id="perspective3907"
       inkscape:persp3d-origin="0.5 : 0.33333333 : 1"
       inkscape:vp_z="1 : 0.5 : 1"
       inkscape:vp_y="0 : 1000 : 0"
       inkscape:vp_x="0 : 0.5 : 1"
       sodipodi:type="inkscape:persp3d" />
    <inkscape:perspective
       id="perspective3907-0"
       inkscape:persp3d-origin="0.5 : 0.33333333 : 1"
       inkscape:vp_z="1 : 0.5 : 1"
       inkscape:vp_y="0 : 1000 : 0"
       inkscape:vp_x="0 : 0.5 : 1"
       sodipodi:type="inkscape:persp3d" />
    <inkscape:perspective
       id="perspective3944"
       inkscape:persp3d-origin="0.5 : 0.33333333 : 1"
       inkscape:vp_z="1 : 0.5 : 1"
       inkscape:vp_y="0 : 1000 : 0"
       inkscape:vp_x="0 : 0.5 : 1"
       sodipodi:type="inkscape:persp3d" />
    <inkscape:perspective
       id="perspective3944-7"
       inkscape:persp3d-origin="0.5 : 0.33333333 : 1"
       inkscape:vp_z="1 : 0.5 : 1"
       inkscape:vp_y="0 : 1000 : 0"
       inkscape:vp_x="0 : 0.5 : 1"
       sodipodi:type="inkscape:persp3d" />
    <inkscape:perspective
       id="perspective3944-4"
       inkscape:persp3d-origin="0.5 : 0.33333333 : 1"
       inkscape:vp_z="1 : 0.5 : 1"
       inkscape:vp_y="0 : 1000 : 0"
       inkscape:vp_x="0 : 0.5 : 1"
       sodipodi:type="inkscape:persp3d" />
    <inkscape:perspective
       id="perspective3986"
       inkscape:persp3d-origin="0.5 : 0.33333333 : 1"
       inkscape:vp_z="1 : 0.5 : 1"
       inkscape:vp_y="0 : 1000 : 0"
       inkscape:vp_x="0 : 0.5 : 1"
       sodipodi:type="inkscape:persp3d" />
    <inkscape:perspective
       id="perspective4008"
       inkscape:persp3d-origin="0.5 : 0.33333333 : 1"
       inkscape:vp_z="1 : 0.5 : 1"
       inkscape:vp_y="0 : 1000 : 0"
       inkscape:vp_x="0 : 0.5 : 1"
       sodipodi:type="inkscape:persp3d" />
    <inkscape:perspective
       id="perspective4033"
       inkscape:persp3d-origin="0.5 : 0.33333333 : 1"
       inkscape:vp_z="1 : 0.5 : 1"
       inkscape:vp_y="0 : 1000 : 0"
       inkscape:vp_x="0 : 0.5 : 1"
       sodipodi:type="inkscape:persp3d" />
    <inkscape:perspective
       id="perspective4057"
       inkscape:persp3d-origin="0.5 : 0.33333333 : 1"
       inkscape:vp_z="1 : 0.5 : 1"
       inkscape:vp_y="0 : 1000 : 0"
       inkscape:vp_x="0 : 0.5 : 1"
       sodipodi:type="inkscape:persp3d" />
    <inkscape:perspective
       id="perspective4081"
       inkscape:persp3d-origin="0.5 : 0.33333333 : 1"
       inkscape:vp_z="1 : 0.5 : 1"
       inkscape:vp_y="0 : 1000 : 0"
       inkscape:vp_x="0 : 0.5 : 1"
       sodipodi:type="inkscape:persp3d" />
    <inkscape:perspective
       id="perspective4121"
       inkscape:persp3d-origin="0.5 : 0.33333333 : 1"
       inkscape:vp_z="1 : 0.5 : 1"
       inkscape:vp_y="0 : 1000 : 0"
       inkscape:vp_x="0 : 0.5 : 1"
       sodipodi:type="inkscape:persp3d" />
    <inkscape:perspective
       id="perspective4143"
       inkscape:persp3d-origin="0.5 : 0.33333333 : 1"
       inkscape:vp_z="1 : 0.5 : 1"
       inkscape:vp_y="0 : 1000 : 0"
       inkscape:vp_x="0 : 0.5 : 1"
       sodipodi:type="inkscape:persp3d" />
    <inkscape:perspective
       id="perspective4143-6"
       inkscape:persp3d-origin="0.5 : 0.33333333 : 1"
       inkscape:vp_z="1 : 0.5 : 1"
       inkscape:vp_y="0 : 1000 : 0"
       inkscape:vp_x="0 : 0.5 : 1"
       sodipodi:type="inkscape:persp3d" />
    <inkscape:perspective
       id="perspective4178"
       inkscape:persp3d-origin="0.5 : 0.33333333 : 1"
       inkscape:vp_z="1 : 0.5 : 1"
       inkscape:vp_y="0 : 1000 : 0"
       inkscape:vp_x="0 : 0.5 : 1"
       sodipodi:type="inkscape:persp3d" />
    <inkscape:perspective
       id="perspective4178-7"
       inkscape:persp3d-origin="0.5 : 0.33333333 : 1"
       inkscape:vp_z="1 : 0.5 : 1"
       inkscape:vp_y="0 : 1000 : 0"
       inkscape:vp_x="0 : 0.5 : 1"
       sodipodi:type="inkscape:persp3d" />
    <inkscape:perspective
       id="perspective4178-0"
       inkscape:persp3d-origin="0.5 : 0.33333333 : 1"
       inkscape:vp_z="1 : 0.5 : 1"
       inkscape:vp_y="0 : 1000 : 0"
       inkscape:vp_x="0 : 0.5 : 1"
       sodipodi:type="inkscape:persp3d" />
    <inkscape:perspective
       id="perspective4178-1"
       inkscape:persp3d-origin="0.5 : 0.33333333 : 1"
       inkscape:vp_z="1 : 0.5 : 1"
       inkscape:vp_y="0 : 1000 : 0"
       inkscape:vp_x="0 : 0.5 : 1"
       sodipodi:type="inkscape:persp3d" />
    <inkscape:perspective
       id="perspective4241"
       inkscape:persp3d-origin="0.5 : 0.33333333 : 1"
       inkscape:vp_z="1 : 0.5 : 1"
       inkscape:vp_y="0 : 1000 : 0"
       inkscape:vp_x="0 : 0.5 : 1"
       sodipodi:type="inkscape:persp3d" />
    <inkscape:perspective
       id="perspective4263"
       inkscape:persp3d-origin="0.5 : 0.33333333 : 1"
       inkscape:vp_z="1 : 0.5 : 1"
       inkscape:vp_y="0 : 1000 : 0"
       inkscape:vp_x="0 : 0.5 : 1"
       sodipodi:type="inkscape:persp3d" />
    <inkscape:perspective
       id="perspective4285"
       inkscape:persp3d-origin="0.5 : 0.33333333 : 1"
       inkscape:vp_z="1 : 0.5 : 1"
       inkscape:vp_y="0 : 1000 : 0"
       inkscape:vp_x="0 : 0.5 : 1"
       sodipodi:type="inkscape:persp3d" />
    <inkscape:perspective
       id="perspective4307"
       inkscape:persp3d-origin="0.5 : 0.33333333 : 1"
       inkscape:vp_z="1 : 0.5 : 1"
       inkscape:vp_y="0 : 1000 : 0"
       inkscape:vp_x="0 : 0.5 : 1"
       sodipodi:type="inkscape:persp3d" />
    <inkscape:perspective
       id="perspective4329"
       inkscape:persp3d-origin="0.5 : 0.33333333 : 1"
       inkscape:vp_z="1 : 0.5 : 1"
       inkscape:vp_y="0 : 1000 : 0"
       inkscape:vp_x="0 : 0.5 : 1"
       sodipodi:type="inkscape:persp3d" />
    <inkscape:perspective
       id="perspective4351"
       inkscape:persp3d-origin="0.5 : 0.33333333 : 1"
       inkscape:vp_z="1 : 0.5 : 1"
       inkscape:vp_y="0 : 1000 : 0"
       inkscape:vp_x="0 : 0.5 : 1"
       sodipodi:type="inkscape:persp3d" />
  </defs>
  <sodipodi:namedview
     id="base"
     pagecolor="#ffffff"
     bordercolor="#666666"
     borderopacity="1.0"
     inkscape:pageopacity="0.0"
     inkscape:pageshadow="2"
     inkscape:zoom="0.98994949"
     inkscape:cx="374.13392"
     inkscape:cy="651.55844"
     inkscape:document-units="px"
     inkscape:current-layer="layer1"
     showgrid="false"
     inkscape:snap-grids="false"
     showguides="true"
     inkscape:guide-bbox="true"
     inkscape:window-width="1680"
     inkscape:window-height="1031"
     inkscape:window-x="-4"
     inkscape:window-y="-4"
     inkscape:window-maximized="1">
    <inkscape:grid
       type="xygrid"
       id="grid3976" />
  </sodipodi:namedview>
  <metadata
     id="metadata7">
    <rdf:RDF>
      <cc:Work
         rdf:about="">
        <dc:format>image/svg+xml</dc:format>
        <dc:type
           rdf:resource="http://purl.org/dc/dcmitype/StillImage" />
        <dc:title></dc:title>
      </cc:Work>
    </rdf:RDF>
  </metadata>
  <g
     inkscape:label="Layer 1"
     inkscape:groupmode="layer"
     id="layer1">
    <path
       transform="matrix(0.58067435,0,0,0.58067435,-284.97885,-42.587175)"
       sodipodi:type="arc"
       style="fill:#69a0ff;fill-opacity:1;stroke:#000000;stroke-width:1.875;stroke-linecap:round;stroke-miterlimit:4;stroke-opacity:1;stroke-dasharray:none"
       id="path2865-4"
       sodipodi:cx="708.11694"
       sodipodi:cy="568.49908"
       sodipodi:rx="29.294424"
       sodipodi:ry="29.294424"
       d="m 737.41137,568.49908 a 29.294424,29.294424 0 1 1 -58.58885,0 29.294424,29.294424 0 1 1 58.58885,0 z" />
    <path
       style="fill:#69a0ff;fill-opacity:1;stroke:#000000;stroke-width:1.1613487;stroke-linecap:round;stroke-miterlimit:4;stroke-opacity:1;stroke-dasharray:none"
       d="m 101.12797,252.29764 -6.596608,8.97765 -35.008058,-25.72327 -4.021466,5.47301 35.008044,25.72328 -6.37084,8.67039 14.26189,1.57832 14.261888,1.57833 -5.76743,-13.13886 -5.76742,-13.13885 z"
       id="rect2924-6-2" />
    <path
       style="fill:#69a0ff;fill-opacity:1;stroke:#000000;stroke-width:1.1613487;stroke-linecap:round;stroke-miterlimit:4;stroke-opacity:1;stroke-dasharray:none"
       d="m 102.65236,215.10946 0,11.14063 -43.442492,0 0,6.79161 43.442492,0 0,10.75935 12.42748,-7.1729 12.42747,-7.17289 -12.42747,-7.17291 -12.42748,-7.17289 z"
       id="rect2924-6-4" />
    <path
       sodipodi:type="arc"
       style="fill:#69a0ff;fill-opacity:1;stroke:#000000;stroke-width:1.875;stroke-linecap:round;stroke-miterlimit:4;stroke-opacity:1;stroke-dasharray:none"
       id="path2865"
       sodipodi:cx="708.11694"
       sodipodi:cy="568.49908"
       sodipodi:rx="29.294424"
       sodipodi:ry="29.294424"
       d="m 737.41137,568.49908 a 29.294424,29.294424 0 1 1 -58.58885,0 29.294424,29.294424 0 1 1 58.58885,0 z"
       transform="matrix(0.58067435,0,0,0.58067435,-361.2329,-100.65759)" />
    <path
       transform="matrix(0.58067435,0,0,0.58067435,-268.5549,-100.071)"
       sodipodi:type="arc"
       style="fill:#69a0ff;fill-opacity:1;stroke:#000000;stroke-width:1.875;stroke-linecap:round;stroke-miterlimit:4;stroke-opacity:1;stroke-dasharray:none"
       id="path2865-8"
       sodipodi:cx="708.11694"
       sodipodi:cy="568.49908"
       sodipodi:rx="29.294424"
       sodipodi:ry="29.294424"
       d="m 737.41137,568.49908 a 29.294424,29.294424 0 1 1 -58.58885,0 29.294424,29.294424 0 1 1 58.58885,0 z" />
    <path
       style="fill:#69a0ff;fill-opacity:1;stroke:#000000;stroke-width:1.1613487;stroke-linecap:round;stroke-miterlimit:4;stroke-opacity:1;stroke-dasharray:none"
       d="m 362.6492,204.99385 7.85115,-7.90399 30.82132,30.61531 4.78626,-4.81847 -30.8213,-30.61531 7.58246,-7.63348 -13.87195,-3.66905 -13.87194,-3.66904 3.762,13.847 3.762,13.84703 z"
       id="rect2924-6-5" />
    <path
       style="fill:#69a0ff;fill-opacity:1;stroke:#000000;stroke-width:1.1613487;stroke-linecap:round;stroke-miterlimit:4;stroke-opacity:1;stroke-dasharray:none"
       d="m 390.14285,185.47455 10.90192,-2.29387 8.94489,42.51164 6.6461,-1.39841 -8.9449,-42.51163 10.5288,-2.21538 -9.57805,-10.68427 -9.57804,-10.68428 -4.46036,13.6381 -4.46036,13.6381 z"
       id="rect2924-6-4-7" />
    <path
       sodipodi:type="arc"
       style="fill:#69a0ff;fill-opacity:1;stroke:#000000;stroke-width:1.875;stroke-linecap:round;stroke-miterlimit:4;stroke-opacity:1;stroke-dasharray:none"
       id="path2865-45"
       sodipodi:cx="708.11694"
       sodipodi:cy="568.49908"
       sodipodi:rx="29.294424"
       sodipodi:ry="29.294424"
       d="m 737.41137,568.49908 a 29.294424,29.294424 0 1 1 -58.58885,0 29.294424,29.294424 0 1 1 58.58885,0 z"
       transform="matrix(-0.11956207,-0.56823201,0.56823201,-0.11956207,176.65682,704.43705)" />
    <path
       transform="matrix(-0.11956207,-0.56823201,0.56823201,-0.11956207,107.84657,633.79876)"
       sodipodi:type="arc"
       style="fill:#69a0ff;fill-opacity:1;stroke:#000000;stroke-width:1.875;stroke-linecap:round;stroke-miterlimit:4;stroke-opacity:1;stroke-dasharray:none"
       id="path2865-9-3"
       sodipodi:cx="708.11694"
       sodipodi:cy="568.49908"
       sodipodi:rx="29.294424"
       sodipodi:ry="29.294424"
       d="m 737.41137,568.49908 a 29.294424,29.294424 0 1 1 -58.58885,0 29.294424,29.294424 0 1 1 58.58885,0 z" />
    <path
       transform="matrix(-0.11956207,-0.56823201,0.56823201,-0.11956207,158.14825,613.62414)"
       sodipodi:type="arc"
       style="fill:#69a0ff;fill-opacity:1;stroke:#000000;stroke-width:1.875;stroke-linecap:round;stroke-miterlimit:4;stroke-opacity:1;stroke-dasharray:none"
       id="path2865-8-5"
       sodipodi:cx="708.11694"
       sodipodi:cy="568.49908"
       sodipodi:rx="29.294424"
       sodipodi:ry="29.294424"
       d="m 737.41137,568.49908 a 29.294424,29.294424 0 1 1 -58.58885,0 29.294424,29.294424 0 1 1 58.58885,0 z" />
    <path
       style="fill:#69a0ff;fill-opacity:1;stroke:#000000;stroke-width:1.1613487;stroke-linecap:round;stroke-miterlimit:4;stroke-opacity:1;stroke-dasharray:none"
       d="m 277.1666,230.41969 -1.70333,11.00965 -42.93173,-6.64204 -1.03838,6.71176 42.93172,6.64205 -1.64502,10.63285 13.37805,-5.18851 13.37805,-5.18849 -11.18468,-8.98864 -11.18468,-8.98863 z"
       id="rect2924-6-58" />
    <path
       style="fill:#69a0ff;fill-opacity:1;stroke:#000000;stroke-width:1.1613487;stroke-linecap:round;stroke-miterlimit:4;stroke-opacity:1;stroke-dasharray:none"
       d="m 240.33927,288.94273 -10.91355,2.23782 -8.7263,-42.55706 -6.65319,1.36424 8.7263,42.55704 -10.54005,2.16123 9.523,10.73336 9.52301,10.73336 4.53039,-13.61499 4.53039,-13.615 z"
       id="rect2924-6-2-1" />
    <path
       sodipodi:type="arc"
       style="fill:#69a0ff;fill-opacity:1;stroke:#000000;stroke-width:1.875;stroke-linecap:round;stroke-miterlimit:4;stroke-opacity:1;stroke-dasharray:none"
       id="path2865-0"
       sodipodi:cx="708.11694"
       sodipodi:cy="568.49908"
       sodipodi:rx="29.294424"
       sodipodi:ry="29.294424"
       d="m 737.41137,568.49908 a 29.294424,29.294424 0 1 1 -58.58885,0 29.294424,29.294424 0 1 1 58.58885,0 z"
       transform="matrix(0.43081642,0.38933265,-0.38933265,0.43081642,133.9532,-282.92874)" />
    <path
       transform="matrix(0.43081642,0.38933265,-0.38933265,0.43081642,231.14589,-266.24934)"
       sodipodi:type="arc"
       style="fill:#69a0ff;fill-opacity:1;stroke:#000000;stroke-width:1.875;stroke-linecap:round;stroke-miterlimit:4;stroke-opacity:1;stroke-dasharray:none"
       id="path2865-9-7"
       sodipodi:cx="708.11694"
       sodipodi:cy="568.49908"
       sodipodi:rx="29.294424"
       sodipodi:ry="29.294424"
       d="m 737.41137,568.49908 a 29.294424,29.294424 0 1 1 -58.58885,0 29.294424,29.294424 0 1 1 58.58885,0 z" />
    <path
       transform="matrix(0.43081642,0.38933265,-0.38933265,0.43081642,151.59267,-188.71779)"
       sodipodi:type="arc"
       style="fill:#69a0ff;fill-opacity:1;stroke:#000000;stroke-width:1.875;stroke-linecap:round;stroke-miterlimit:4;stroke-opacity:1;stroke-dasharray:none"
       id="path2865-4-6"
       sodipodi:cx="708.11694"
       sodipodi:cy="568.49908"
       sodipodi:rx="29.294424"
       sodipodi:ry="29.294424"
       d="m 737.41137,568.49908 a 29.294424,29.294424 0 1 1 -58.58885,0 29.294424,29.294424 0 1 1 58.58885,0 z" />
    <path
       style="fill:#69a0ff;fill-opacity:1;stroke:#000000;stroke-width:1.1613487;stroke-linecap:round;stroke-miterlimit:4;stroke-opacity:1;stroke-dasharray:none"
       d="m 602.5987,201.13684 6.11806,9.31037 -36.30547,23.85714 3.72972,5.67584 36.30547,-23.85713 5.90867,8.99173 6.44669,-12.81923 6.4467,-12.81924 -14.32491,0.83026 -14.32493,0.83026 z"
       id="rect2924-6-5-9" />
    <path
       style="fill:#69a0ff;fill-opacity:1;stroke:#000000;stroke-width:1.1613487;stroke-linecap:round;stroke-miterlimit:4;stroke-opacity:1;stroke-dasharray:none"
       d="m 614.51436,269.24862 -6.59661,8.97767 -35.00806,-25.72328 -4.02147,5.473 35.00805,25.72329 -6.37084,8.67039 14.26189,1.57832 14.26189,1.57833 -5.76743,-13.13886 -5.76742,-13.13886 z"
       id="rect2924-6-2-0-4" />
    <path
       style="fill:#69a0ff;fill-opacity:1;stroke:#000000;stroke-width:1.1613487;stroke-linecap:round;stroke-miterlimit:4;stroke-opacity:1;stroke-dasharray:none"
       d="m 616.03875,232.06044 0,11.14063 -43.4425,0 0,6.79162 43.4425,0 0,10.75935 12.42748,-7.17291 12.42747,-7.17289 -12.42747,-7.1729 -12.42748,-7.1729 z"
       id="rect2924-6-4-7-0" />
    <path
       sodipodi:type="arc"
       style="fill:#69a0ff;fill-opacity:1;stroke:#000000;stroke-width:1.875;stroke-linecap:round;stroke-miterlimit:4;stroke-opacity:1;stroke-dasharray:none"
       id="path2865-45-9"
       sodipodi:cx="708.11694"
       sodipodi:cy="568.49908"
       sodipodi:rx="29.294424"
       sodipodi:ry="29.294424"
       d="m 737.41137,568.49908 a 29.294424,29.294424 0 1 1 -58.58885,0 29.294424,29.294424 0 1 1 58.58885,0 z"
       transform="matrix(0.58067435,0,0,0.58067435,152.15348,-83.706601)" />
    <path
       transform="matrix(0.58067435,0,0,0.58067435,235.44637,-136.49786)"
       sodipodi:type="arc"
       style="fill:#69a0ff;fill-opacity:1;stroke:#000000;stroke-width:1.875;stroke-linecap:round;stroke-miterlimit:4;stroke-opacity:1;stroke-dasharray:none"
       id="path2865-9-3-5"
       sodipodi:cx="708.11694"
       sodipodi:cy="568.49908"
       sodipodi:rx="29.294424"
       sodipodi:ry="29.294424"
       d="m 737.41137,568.49908 a 29.294424,29.294424 0 1 1 -58.58885,0 29.294424,29.294424 0 1 1 58.58885,0 z" />
    <path
       transform="matrix(0.58067435,0,0,0.58067435,244.83148,-83.120021)"
       sodipodi:type="arc"
       style="fill:#69a0ff;fill-opacity:1;stroke:#000000;stroke-width:1.875;stroke-linecap:round;stroke-miterlimit:4;stroke-opacity:1;stroke-dasharray:none"
       id="path2865-8-5-2"
       sodipodi:cx="708.11694"
       sodipodi:cy="568.49908"
       sodipodi:rx="29.294424"
       sodipodi:ry="29.294424"
       d="m 737.41137,568.49908 a 29.294424,29.294424 0 1 1 -58.58885,0 29.294424,29.294424 0 1 1 58.58885,0 z" />
    <path
       transform="matrix(0.58067435,0,0,0.58067435,228.40754,-25.636201)"
       sodipodi:type="arc"
       style="fill:#69a0ff;fill-opacity:1;stroke:#000000;stroke-width:1.875;stroke-linecap:round;stroke-miterlimit:4;stroke-opacity:1;stroke-dasharray:none"
       id="path2865-4-8-3"
       sodipodi:cx="708.11694"
       sodipodi:cy="568.49908"
       sodipodi:rx="29.294424"
       sodipodi:ry="29.294424"
       d="m 737.41137,568.49908 a 29.294424,29.294424 0 1 1 -58.58885,0 29.294424,29.294424 0 1 1 58.58885,0 z" />
    <path
       style="fill:#8dd35f;fill-opacity:1;stroke:#000000;stroke-width:1.40495658;stroke-linecap:round;stroke-miterlimit:4;stroke-opacity:1;stroke-dasharray:none"
       d="m 116.65759,75.04491 8.66614,4.668789 -70.74328,131.312521 8.666134,4.66878 70.743266,-131.312512 8.0884,4.357537 -0.42655,-14.428387 -0.42654,-14.428385 -12.28378,7.580824 -12.28379,7.580833 z"
       id="rect3895" />
    <path
       style="fill:#8dd35f;fill-opacity:1;stroke:#000000;stroke-width:1.40495658;stroke-linecap:round;stroke-miterlimit:4;stroke-opacity:1;stroke-dasharray:none"
       d="m 472.18465,77.536064 8.91613,4.171583 -63.20949,135.100513 8.91613,4.17158 63.20948,-135.1005 8.32172,3.893477 -1.24125,-14.381225 -1.24122,-14.381218 -11.83575,8.262889 -11.83575,8.262901 z"
       id="rect3895-5" />
    <path
       style="fill:#8dd35f;fill-opacity:1;stroke:#000000;stroke-width:1.40495658;stroke-linecap:round;stroke-miterlimit:4;stroke-opacity:1;stroke-dasharray:none"
       d="m 503.50939,91.433667 9.44494,-2.77355 42.02576,143.113333 9.44494,-2.77355 -42.02576,-143.113316 8.81528,-2.58865 -10.44826,-9.959635 -10.44823,-9.959646 -3.40434,14.027501 -3.40433,14.027513 z"
       id="rect3895-1" />
    <path
       style="fill:#ffcc00;fill-opacity:1;stroke:#000000;stroke-width:2.11998582;stroke-linecap:round;stroke-miterlimit:4;stroke-opacity:1;stroke-dasharray:none"
       d="m 267.37604,289.8174 -15.5841,-3.89097 55.16245,-220.936487 -8.06492,-2.013618 -55.16245,220.936495 -14.67453,-3.66387 5.44012,18.97674 5.4401,18.97676 13.72167,-14.19252 13.72166,-14.19253 z"
       id="rect4166-8" />
    <path
       style="fill:#8dd35f;fill-opacity:1;stroke:#000000;stroke-width:1.40495658;stroke-linecap:round;stroke-miterlimit:4;stroke-opacity:1;stroke-dasharray:none"
       d="m 275.8156,79.679287 8.91613,4.171583 -63.20949,135.10052 8.91613,4.17158 63.20948,-135.100507 8.32172,3.893477 -1.24125,-14.381225 -1.24122,-14.381218 -11.83575,8.262889 -11.83575,8.262901 z"
       id="rect3895-5-9" />
    <path
       style="fill:#ffcc00;fill-opacity:1;stroke:#000000;stroke-width:1.64891303;stroke-linecap:round;stroke-miterlimit:4;stroke-opacity:1;stroke-dasharray:none"
       d="m 165.2355,185.97388 -15.79164,-0.81214 6.55326,-127.425351 -8.80086,-0.452613 -6.55327,127.425344 -14.85536,-0.76398 8.98402,17.57837 8.98403,17.57837 10.7399,-16.564 10.73992,-16.564 z"
       id="rect4166" />
    <path
       transform="matrix(0.58067435,0,0,0.58067435,-261.18535,-285.74013)"
       sodipodi:type="arc"
       style="fill:#ff673c;fill-opacity:1;stroke:#000000;stroke-width:1.875;stroke-linecap:round;stroke-miterlimit:4;stroke-opacity:1;stroke-dasharray:none"
       id="path2865-9-2"
       sodipodi:cx="708.11694"
       sodipodi:cy="568.49908"
       sodipodi:rx="29.294424"
       sodipodi:ry="29.294424"
       d="m 737.41137,568.49908 a 29.294424,29.294424 0 1 1 -58.58885,0 29.294424,29.294424 0 1 1 58.58885,0 z" />
    <path
       style="fill:#ffcc00;fill-opacity:1;stroke:#000000;stroke-width:1.92291021;stroke-linecap:round;stroke-miterlimit:4;stroke-opacity:1;stroke-dasharray:none"
       d="m 145.86802,241.95306 -15.84895,-1.67784 19.13396,-180.740014 -8.48384,-0.898141 -19.13395,180.740025 -14.91665,-1.57914 8.02056,18.03835 8.02056,18.03837 11.61969,-15.95915 11.58862,-15.96246 z"
       id="rect4166-0" />
    <path
       style="fill:#ffcc00;fill-opacity:1;stroke:#000000;stroke-width:2.10623169;stroke-linecap:round;stroke-miterlimit:4;stroke-opacity:1;stroke-dasharray:none"
       d="m 632.57428,255.30677 -13.03213,6.94128 -118.82087,-223.08371 -6.55387,3.490781 118.82087,223.083709 -12.25069,6.52509 15.28433,9.55912 15.30954,9.54569 0.62142,-18.03098 0.6214,-18.03098 z"
       id="rect4166-4" />
    <path
       style="fill:#ffcc00;fill-opacity:1;stroke:#000000;stroke-width:1.92291021;stroke-linecap:round;stroke-miterlimit:4;stroke-opacity:1;stroke-dasharray:none"
       d="m 333.27667,212.84868 -15.92566,0.61423 -7.00468,-181.614978 -8.52491,0.328796 7.00468,181.614982 -14.98885,0.5781 10.52645,16.70047 10.52646,16.70046 9.20887,-17.46163 9.17764,-17.46043 z"
       id="rect4166-0-4" />
    <path
       transform="matrix(0.58067435,0,0,0.58067435,-104.75677,-284.31156)"
       sodipodi:type="arc"
       style="fill:#ff673c;fill-opacity:1;stroke:#000000;stroke-width:1.875;stroke-linecap:round;stroke-miterlimit:4;stroke-opacity:1;stroke-dasharray:none"
       id="path2865-9-2-6"
       sodipodi:cx="708.11694"
       sodipodi:cy="568.49908"
       sodipodi:rx="29.294424"
       sodipodi:ry="29.294424"
       d="m 737.41137,568.49908 a 29.294424,29.294424 0 1 1 -58.58885,0 29.294424,29.294424 0 1 1 58.58885,0 z" />
    <path
       style="fill:#ffcc00;fill-opacity:1;stroke:#000000;stroke-width:1.46112514;stroke-linecap:round;stroke-miterlimit:4;stroke-opacity:1;stroke-dasharray:none"
       d="m 437.10914,128.57227 -9.06659,-10.69719 85.44427,-73.917939 -5.05292,-5.961676 -85.44427,73.917935 -8.52905,-10.06296 -5.78483,16.58324 -5.78484,16.58326 17.10912,-3.22234 17.10911,-3.22233 z"
       id="rect4166-3"
       inkscape:transform-center-x="-9.820475"
       inkscape:transform-center-y="0.4206005" />
    <path
       style="fill:#ffcc00;fill-opacity:1;stroke:#000000;stroke-width:1.64761031;stroke-linecap:round;stroke-miterlimit:4;stroke-opacity:1;stroke-dasharray:none"
       d="m 385.06337,148.82433 -8.3043,-10.78781 125.88925,-92.545805 -4.44524,-5.774654 -125.88927,92.545809 -7.8158,-10.15324 -6.6946,15.38822 -6.69458,15.38823 16.9854,-2.01979 16.96914,-2.04096 z"
       id="rect4166-0-4-2" />
    <path
       style="fill:#ffcc00;fill-opacity:1;stroke:#000000;stroke-width:1.76129413;stroke-linecap:round;stroke-miterlimit:4;stroke-opacity:1;stroke-dasharray:none"
       d="m 627.53184,145.31275 -10.45227,10.18392 -114.00193,-121.428685 -5.59504,5.451394 114.00195,121.428701 -9.83741,9.58485 17.19827,5.11045 17.19828,5.11044 -4.24568,-17.73051 -4.26617,-17.71056 z"
       id="rect4166-0-4-6" />
    <path
       style="fill:#ffcc00;fill-opacity:1;stroke:#000000;stroke-width:2.07772756;stroke-linecap:round;stroke-miterlimit:4;stroke-opacity:1;stroke-dasharray:none"
       d="m 643.89243,200.27201 -12.664,9.35111 -132.57114,-179.538331 -6.55376,4.839286 132.57114,179.538335 -11.92488,8.80534 17.73715,7.72812 17.73714,7.72815 -2.16583,-19.22599 -2.16582,-19.22602 z"
       id="rect4166-8-4" />
    <path
       transform="matrix(0.58067435,0,0,0.58067435,93.814654,-285.74013)"
       sodipodi:type="arc"
       style="fill:#ff673c;fill-opacity:1;stroke:#000000;stroke-width:1.875;stroke-linecap:round;stroke-miterlimit:4;stroke-opacity:1;stroke-dasharray:none"
       id="path2865-9-2-69"
       sodipodi:cx="708.11694"
       sodipodi:cy="568.49908"
       sodipodi:rx="29.294424"
       sodipodi:ry="29.294424"
       d="m 737.41137,568.49908 a 29.294424,29.294424 0 1 1 -58.58885,0 29.294424,29.294424 0 1 1 58.58885,0 z" />
    <flowRoot
       xml:space="preserve"
       id="flowRoot4386"
       style="font-size:24px;font-style:normal;font-weight:normal;fill:#000000;fill-opacity:1;stroke:none;font-family:Bitstream Vera Sans"
       transform="translate(-98.994949,-27.274119)"><flowRegion
         id="flowRegion4388"><rect
           id="rect4390"
           width="527.29962"
           height="385.87827"
           x="187.88837"
           y="423.03714" /></flowRegion><flowPara
         id="flowPara4392">Of course there is more than one rule and more than one item in the system. But always an item can only use the properties of one rule (a rule may be used by more than one item).</flowPara></flowRoot>  </g>
</svg>
