<?xml version="1.0" encoding="UTF-8" standalone="no"?>
<!-- Created with Inkscape (http://www.inkscape.org/) -->
<svg
   xmlns:dc="http://purl.org/dc/elements/1.1/"
   xmlns:cc="http://creativecommons.org/ns#"
   xmlns:rdf="http://www.w3.org/1999/02/22-rdf-syntax-ns#"
   xmlns:svg="http://www.w3.org/2000/svg"
   xmlns="http://www.w3.org/2000/svg"
   xmlns:xlink="http://www.w3.org/1999/xlink"
   xmlns:sodipodi="http://sodipodi.sourceforge.net/DTD/sodipodi-0.dtd"
   xmlns:inkscape="http://www.inkscape.org/namespaces/inkscape"
   width="210mm"
   height="297mm"
   id="svg3269"
   sodipodi:version="0.32"
   inkscape:version="0.46"
   sodipodi:docname="titles.svg"
   inkscape:output_extension="org.inkscape.output.svg.inkscape">
  <defs
     id="defs3">
    <filter
       inkscape:collect="always"
       id="filter3183"
       x="-0.20753704"
       width="1.4150741"
       y="-0.17862726"
       height="1.3572545">
      <feGaussianBlur
         inkscape:collect="always"
         stdDeviation="2.2835128"
         id="feGaussianBlur3185" />
    </filter>
    <inkscape:perspective
       sodipodi:type="inkscape:persp3d"
       inkscape:vp_x="0 : 526.18109 : 1"
       inkscape:vp_y="0 : 1000 : 0"
       inkscape:vp_z="744.09448 : 526.18109 : 1"
       inkscape:persp3d-origin="372.04724 : 350.78739 : 1"
       id="perspective3275" />
    <inkscape:perspective
       id="perspective3284"
       inkscape:persp3d-origin="372.04724 : 350.78739 : 1"
       inkscape:vp_z="744.09448 : 526.18109 : 1"
       inkscape:vp_y="0 : 1000 : 0"
       inkscape:vp_x="0 : 526.18109 : 1"
       sodipodi:type="inkscape:persp3d" />
  </defs>
  <sodipodi:namedview
     inkscape:document-units="mm"
     id="base"
     pagecolor="#ffffff"
     bordercolor="#666666"
     borderopacity="1.0"
     inkscape:pageopacity="0.0"
     inkscape:pageshadow="2"
     inkscape:zoom="1.979899"
     inkscape:cx="350"
     inkscape:cy="520"
     inkscape:current-layer="layer1"
     showgrid="false"
     inkscape:window-width="1440"
     inkscape:window-height="880"
     inkscape:window-x="-8"
     inkscape:window-y="-8" />
  <metadata
     id="metadata4">
    <rdf:RDF>
      <cc:Work
         rdf:about="">
        <dc:format>image/svg+xml</dc:format>
        <dc:type
           rdf:resource="http://purl.org/dc/dcmitype/StillImage" />
      </cc:Work>
    </rdf:RDF>
  </metadata>
  <g
     inkscape:label="Layer 1"
     inkscape:groupmode="layer"
     id="layer1">
    <image
       y="393.36218"
       x="210.5"
       id="image3286"
       height="278"
       width="279"
       sodipodi:absref="C:\Users\Benjamin Sigg\workspace\Civ4MapEditor\config\tools\pastedpic_12042008_190525.png"
       xlink:href="C:\Users\Benjamin Sigg\workspace\Civ4MapEditor\config\tools\pastedpic_12042008_190525.png" />
    <g
       id="g3191"
       transform="translate(188.62485,-90.355172)">
      <path
         id="path3193"
         d="M 141.33969,510.72214 L 143.09017,521.14636 L 144.84065,531.57058 L 149.49395,527.73355 L 159.11635,539.40296 L 165.74669,533.93569 L 156.1243,522.26628 L 161.16336,518.11115 L 151.26358,514.40671 L 141.33969,510.72214 z"
         style="fill:#000000;fill-opacity:1;stroke:#5e5d5e;stroke-width:2;stroke-linecap:round;stroke-linejoin:round;stroke-miterlimit:4;stroke-dasharray:none;stroke-opacity:1;filter:url(#filter3183)" />
      <path
         id="path3195"
         d="M 140.87689,507.58473 L 142.62737,518.00895 L 144.37785,528.43317 L 149.03115,524.59614 L 158.65355,536.26555 L 165.28389,530.79828 L 155.6615,519.12887 L 160.70056,514.97374 L 150.80078,511.2693 L 140.87689,507.58473 z"
         style="fill:#999999;fill-opacity:1;stroke:#000000;stroke-width:2;stroke-linecap:round;stroke-linejoin:round;stroke-miterlimit:4;stroke-dasharray:none;stroke-opacity:1" />
    </g>
    <g
       id="g3364"
       transform="translate(111.34817,2.5788613)">
      <path
         id="path3366"
         d="M 141.33969,510.72214 L 143.09017,521.14636 L 144.84065,531.57058 L 149.49395,527.73355 L 159.11635,539.40296 L 165.74669,533.93569 L 156.1243,522.26628 L 161.16336,518.11115 L 151.26358,514.40671 L 141.33969,510.72214 z"
         style="fill:#000000;fill-opacity:1;stroke:#5e5d5e;stroke-width:2;stroke-linecap:round;stroke-linejoin:round;stroke-miterlimit:4;stroke-dasharray:none;stroke-opacity:1;filter:url(#filter3183)" />
      <path
         id="path3368"
         d="M 140.87689,507.58473 L 142.62737,518.00895 L 144.37785,528.43317 L 149.03115,524.59614 L 158.65355,536.26555 L 165.28389,530.79828 L 155.6615,519.12887 L 160.70056,514.97374 L 150.80078,511.2693 L 140.87689,507.58473 z"
         style="fill:#999999;fill-opacity:1;stroke:#000000;stroke-width:2;stroke-linecap:round;stroke-linejoin:round;stroke-miterlimit:4;stroke-dasharray:none;stroke-opacity:1" />
    </g>
    <g
       id="g3370"
       transform="translate(83.568983,-80.758724)">
      <path
         id="path3372"
         d="M 141.33969,510.72214 L 143.09017,521.14636 L 144.84065,531.57058 L 149.49395,527.73355 L 159.11635,539.40296 L 165.74669,533.93569 L 156.1243,522.26628 L 161.16336,518.11115 L 151.26358,514.40671 L 141.33969,510.72214 z"
         style="fill:#000000;fill-opacity:1;stroke:#5e5d5e;stroke-width:2;stroke-linecap:round;stroke-linejoin:round;stroke-miterlimit:4;stroke-dasharray:none;stroke-opacity:1;filter:url(#filter3183)" />
      <path
         id="path3374"
         d="M 140.87689,507.58473 L 142.62737,518.00895 L 144.37785,528.43317 L 149.03115,524.59614 L 158.65355,536.26555 L 165.28389,530.79828 L 155.6615,519.12887 L 160.70056,514.97374 L 150.80078,511.2693 L 140.87689,507.58473 z"
         style="fill:#999999;fill-opacity:1;stroke:#000000;stroke-width:2;stroke-linecap:round;stroke-linejoin:round;stroke-miterlimit:4;stroke-dasharray:none;stroke-opacity:1" />
    </g>
    <g
       id="g3376"
       transform="translate(84.579135,-29.74602)">
      <path
         id="path3378"
         d="M 141.33969,510.72214 L 143.09017,521.14636 L 144.84065,531.57058 L 149.49395,527.73355 L 159.11635,539.40296 L 165.74669,533.93569 L 156.1243,522.26628 L 161.16336,518.11115 L 151.26358,514.40671 L 141.33969,510.72214 z"
         style="fill:#000000;fill-opacity:1;stroke:#5e5d5e;stroke-width:2;stroke-linecap:round;stroke-linejoin:round;stroke-miterlimit:4;stroke-dasharray:none;stroke-opacity:1;filter:url(#filter3183)" />
      <path
         id="path3380"
         d="M 140.87689,507.58473 L 142.62737,518.00895 L 144.37785,528.43317 L 149.03115,524.59614 L 158.65355,536.26555 L 165.28389,530.79828 L 155.6615,519.12887 L 160.70056,514.97374 L 150.80078,511.2693 L 140.87689,507.58473 z"
         style="fill:#999999;fill-opacity:1;stroke:#000000;stroke-width:2;stroke-linecap:round;stroke-linejoin:round;stroke-miterlimit:4;stroke-dasharray:none;stroke-opacity:1" />
    </g>
    <g
       id="g3382"
       transform="translate(86.094363,32.378361)">
      <path
         id="path3384"
         d="M 141.33969,510.72214 L 143.09017,521.14636 L 144.84065,531.57058 L 149.49395,527.73355 L 159.11635,539.40296 L 165.74669,533.93569 L 156.1243,522.26628 L 161.16336,518.11115 L 151.26358,514.40671 L 141.33969,510.72214 z"
         style="fill:#000000;fill-opacity:1;stroke:#5e5d5e;stroke-width:2;stroke-linecap:round;stroke-linejoin:round;stroke-miterlimit:4;stroke-dasharray:none;stroke-opacity:1;filter:url(#filter3183)" />
      <path
         id="path3386"
         d="M 140.87689,507.58473 L 142.62737,518.00895 L 144.37785,528.43317 L 149.03115,524.59614 L 158.65355,536.26555 L 165.28389,530.79828 L 155.6615,519.12887 L 160.70056,514.97374 L 150.80078,511.2693 L 140.87689,507.58473 z"
         style="fill:#999999;fill-opacity:1;stroke:#000000;stroke-width:2;stroke-linecap:round;stroke-linejoin:round;stroke-miterlimit:4;stroke-dasharray:none;stroke-opacity:1" />
    </g>
  </g>
</svg>
